<?xml version="1.0" standalone="no"?>
<!DOCTYPE svg PUBLIC "-//W3C//DTD SVG 20010904//EN"
 "http://www.w3.org/TR/2001/REC-SVG-20010904/DTD/svg10.dtd">
<svg version="1.0" xmlns="http://www.w3.org/2000/svg"
 width="148" height="50" viewBox="0 0 1920.000000 1920.000000"
 preserveAspectRatio="xMidYMid meet">

<g transform="translate(0.000000,1920.000000) scale(0.100000,-0.100000)"
fill="#000000" stroke="none">
<path d="M9305 19194 c-1817 -60 -3550 -616 -5045 -1619 -937 -628 -1766
-1427 -2431 -2341 -983 -1353 -1601 -2963 -1773 -4624 -38 -366 -49 -585 -49
-1010 0 -425 11 -644 49 -1010 160 -1544 700 -3035 1569 -4330 571 -852 1279
-1610 2096 -2247 851 -662 1852 -1195 2879 -1531 794 -260 1532 -401 2435
-463 219 -16 911 -16 1130 0 1044 72 1917 258 2825 601 1653 624 3101 1694
4197 3101 578 744 1057 1598 1393 2489 262 693 434 1381 534 2130 57 429 79
778 79 1260 0 604 -38 1059 -138 1645 -378 2225 -1567 4278 -3320 5735 -1466
1218 -3245 1969 -5125 2164 -371 39 -964 61 -1305 50z m331 -3363 c5 -5 29
-19 54 -33 25 -13 83 -46 129 -73 46 -28 109 -64 140 -80 31 -17 175 -100 321
-184 146 -84 363 -210 483 -279 139 -79 222 -133 227 -146 4 -12 9 -363 9
-780 2 -743 2 -760 21 -773 47 -33 5 -101 -49 -82 -29 10 15 34 -841 -459
-168 -97 -342 -196 -387 -221 l-82 -46 -1 -75 c0 -81 -16 -120 -49 -120 -32 0
-46 30 -51 113 l-5 79 -125 73 c-133 77 -486 281 -735 425 -82 48 -170 98
-195 112 -25 14 -89 51 -142 83 -81 47 -100 55 -117 46 -72 -39 -113 41 -41
81 l30 17 0 770 0 770 30 16 c29 15 47 17 43 4 -1 -3 5 -6 13 -6 10 0 11 4 4
11 -17 17 -11 25 43 52 28 14 59 32 67 39 8 7 35 23 60 37 25 13 57 32 72 42
15 10 33 14 40 10 7 -4 10 -3 5 1 -10 11 72 57 86 48 7 -3 9 -3 5 2 -11 11 50
47 65 39 7 -4 9 -3 4 1 -10 12 81 68 95 59 7 -4 8 -3 4 4 -4 7 -3 12 3 12 6 0
38 18 71 39 34 22 67 38 75 35 7 -3 16 0 21 7 5 8 3 10 -7 5 -8 -4 -5 0 5 8
11 9 26 16 33 16 7 0 13 5 13 10 0 6 5 10 10 10 6 0 44 20 84 45 48 29 81 43
93 39 15 -5 15 -4 3 4 -12 9 -10 13 10 21 14 5 38 19 54 30 16 10 36 17 45 14
9 -4 12 -2 8 2 -10 11 103 76 117 68 6 -4 8 -2 4 2 -9 9 78 64 103 64 8 1 19
-3 25 -8z m4594 -2659 c327 -189 624 -360 660 -380 36 -19 73 -42 83 -50 16
-14 17 -66 17 -818 l0 -804 -22 -13 c-27 -16 -257 -149 -853 -492 -236 -136
-438 -254 -447 -263 -15 -12 -18 -32 -18 -98 0 -72 -3 -85 -19 -94 -27 -14
-37 -13 -55 6 -12 11 -16 36 -16 98 l0 83 -507 293 c-280 161 -569 329 -643
372 -121 70 -139 78 -172 73 -32 -6 -39 -3 -53 19 -16 24 -16 28 -1 51 9 14
21 25 26 25 7 0 10 268 10 748 l0 748 -64 37 c-68 40 -88 74 -59 103 22 22 46
17 111 -22 l60 -35 449 259 c246 143 465 269 486 281 21 12 107 61 190 110
196 114 208 120 226 113 9 -3 283 -161 611 -350z m-8592 330 c15 -10 44 -27
65 -37 21 -11 46 -27 56 -35 9 -8 23 -16 31 -18 8 -2 21 -11 28 -20 7 -9 15
-16 17 -14 13 6 25 1 19 -10 -4 -6 -3 -8 3 -5 12 7 153 -71 153 -84 0 -5 7 -6
15 -3 8 4 15 1 15 -4 0 -6 9 -14 20 -17 11 -4 17 -11 14 -17 -4 -7 -2 -8 4 -4
14 8 165 -77 155 -88 -4 -4 1 -4 11 0 15 6 17 4 11 -6 -5 -8 -4 -11 2 -7 13 8
103 -41 103 -56 0 -5 3 -7 7 -4 3 4 12 -1 20 -11 8 -9 12 -12 9 -5 -6 11 61
-26 237 -130 43 -26 83 -47 87 -47 5 0 12 -5 16 -12 5 -7 3 -8 -6 -3 -9 5 -11
4 -6 -4 4 -6 12 -9 17 -5 5 3 33 -9 62 -27 80 -50 117 -69 128 -69 6 0 38 16
71 36 68 42 102 38 106 -10 1 -22 -7 -32 -45 -56 -25 -16 -50 -27 -56 -23 -6
3 -7 1 -4 -4 4 -6 0 -13 -8 -17 -13 -5 -15 -99 -15 -755 0 -740 0 -750 20
-761 22 -12 28 -64 8 -76 -6 -4 -29 -6 -50 -6 -31 2 -58 -9 -126 -49 -48 -29
-103 -61 -122 -72 -40 -22 -345 -198 -595 -342 -93 -54 -188 -108 -210 -121
-22 -12 -89 -51 -150 -86 l-110 -64 -3 -85 c-2 -72 -5 -87 -24 -102 -18 -15
-24 -16 -42 -4 -18 12 -22 27 -26 102 l-5 88 -155 90 c-85 49 -175 101 -200
115 -25 13 -83 47 -130 75 -47 27 -100 58 -117 68 -18 11 -48 27 -65 38 -18
10 -52 30 -76 43 -23 14 -39 28 -35 33 5 4 3 5 -4 1 -7 -4 -29 4 -50 17 -59
37 -153 91 -210 122 -29 15 -50 32 -46 38 3 6 1 7 -5 4 -10 -7 -154 70 -160
85 -2 4 -10 8 -18 8 -8 0 -26 11 -39 25 l-25 24 0 788 c0 433 4 793 8 799 10
15 133 87 149 87 7 0 11 3 8 5 -8 9 166 104 180 98 9 -3 12 0 9 8 -6 15 22 29
38 19 7 -3 8 -1 4 5 -10 16 6 15 24 0 12 -11 12 -10 1 4 -11 15 -10 19 10 28
13 5 47 23 74 40 28 17 61 36 75 43 14 6 27 14 30 18 8 9 154 88 163 88 5 0
14 6 20 14 7 8 44 32 82 52 39 21 83 47 99 58 19 13 27 16 22 6 -5 -9 -3 -9 6
2 12 14 55 42 68 44 3 1 20 11 39 22 19 12 39 19 44 16 6 -3 7 -1 4 4 -8 13
20 26 35 16 7 -4 8 -1 3 7 -6 10 -4 12 9 7 9 -4 15 -3 12 2 -8 12 42 43 56 35
7 -5 8 -3 3 6 -6 10 -4 12 11 6 10 -4 15 -4 11 0 -9 9 62 53 86 54 11 0 31 -8
45 -18z m5675 -189 c152 -85 187 -110 187 -136 0 -44 -45 -61 -85 -33 -11 7
-40 24 -65 38 -178 100 -185 105 -188 134 -4 27 17 54 41 54 5 0 55 -26 110
-57z m-3283 32 c29 -35 15 -48 -178 -161 -95 -56 -119 -63 -140 -42 -29 29 -3
75 58 101 8 4 56 31 105 61 92 56 134 67 155 41z m-471 -264 c28 -28 17 -53
-37 -86 -125 -76 -232 -135 -246 -135 -24 0 -47 40 -35 61 11 21 268 178 292
179 4 0 16 -9 26 -19z m4176 -12 c27 -17 88 -53 136 -80 88 -50 104 -67 94
-100 -14 -43 -50 -34 -183 41 -145 83 -162 96 -162 121 0 22 26 49 49 49 9 0
39 -14 66 -31z m-2091 -761 c13 -18 16 -53 16 -171 0 -83 -5 -157 -10 -168 -7
-12 -21 -19 -40 -19 -19 0 -33 7 -40 19 -6 11 -10 87 -10 175 0 127 3 157 16
170 22 22 50 20 68 -6z m6 -539 c7 -13 10 -77 8 -180 -3 -167 -6 -178 -50
-179 -42 0 -48 24 -48 186 0 88 4 164 10 175 15 26 66 26 80 -2z m-6 -531 c9
-12 16 -32 16 -43 0 -16 44 -45 203 -136 111 -64 301 -174 422 -244 121 -70
317 -183 436 -251 l216 -125 71 41 c78 45 108 46 118 4 9 -37 0 -49 -65 -85
l-61 -34 0 -755 c0 -743 0 -756 20 -773 23 -20 26 -59 5 -77 -9 -7 -29 -10
-52 -6 -35 6 -58 -5 -319 -156 -155 -90 -442 -255 -638 -368 l-356 -205 0 -73
c0 -89 -10 -112 -50 -112 -40 0 -50 23 -50 112 l-1 73 -122 69 c-67 39 -358
206 -646 373 l-524 303 -38 -12 c-44 -13 -69 0 -69 36 0 27 9 40 38 55 l22 12
0 747 0 747 -71 39 c-77 44 -94 72 -64 107 22 23 37 20 118 -27 32 -19 63 -34
69 -34 6 0 135 71 287 159 152 87 292 168 311 178 36 21 497 289 580 337 25
15 60 34 78 43 24 13 32 23 32 44 0 54 55 78 84 37z m-2418 -197 c5 -5 27 -19
49 -31 213 -118 241 -144 195 -182 -13 -10 -30 -16 -39 -13 -30 11 -276 158
-283 169 -27 39 43 90 78 57z m4824 -11 c6 -12 8 -29 5 -40 -9 -28 -283 -182
-310 -174 -37 12 -47 51 -19 75 10 8 71 46 138 86 128 76 168 87 186 53z
m-4243 -327 c145 -85 164 -106 125 -145 l-20 -21 -44 23 c-103 53 -250 145
-259 162 -14 27 6 58 37 58 15 0 87 -35 161 -77z m3783 56 c14 -26 -6 -61 -47
-81 -15 -8 -71 -39 -124 -70 -121 -70 -131 -73 -154 -48 -34 37 -12 63 125
144 135 80 181 92 200 55z m2055 -780 c11 -18 5 -332 -7 -346 -13 -16 -50 -17
-66 -1 -8 8 -12 63 -12 179 0 161 1 169 22 183 21 15 49 9 63 -15z m-8017 9
c8 -8 12 -61 12 -174 0 -171 -6 -194 -49 -194 -37 0 -41 19 -41 190 0 174 4
190 45 190 12 0 26 -5 33 -12z m-4 -534 c13 -13 16 -44 16 -178 0 -146 -2
-165 -19 -180 -18 -17 -49 -13 -63 8 -4 6 -8 86 -8 178 0 149 2 168 18 177 24
15 38 13 56 -5z m8007 6 c18 -10 19 -23 19 -185 0 -162 -1 -175 -19 -185 -27
-14 -37 -13 -55 6 -13 13 -16 44 -16 184 0 150 2 170 18 179 22 13 29 13 53 1z
m-8009 -542 c9 -7 18 -24 20 -37 3 -26 22 -38 493 -308 116 -66 340 -195 498
-287 159 -91 293 -166 299 -166 5 0 38 16 73 36 53 29 68 33 85 24 13 -7 20
-21 20 -40 0 -26 -9 -35 -65 -71 l-65 -41 0 -743 c0 -707 1 -745 18 -757 25
-18 31 -38 21 -67 -8 -21 -14 -23 -49 -18 -44 6 36 49 -880 -480 -261 -151
-482 -276 -491 -278 -9 -2 -54 19 -99 46 -46 27 -84 49 -85 49 -4 0 -1087 627
-1148 664 l-57 35 2 803 3 802 39 27 c22 14 56 35 75 45 20 10 53 29 74 42 21
13 129 75 240 139 321 184 649 373 689 399 21 13 40 24 42 24 3 0 44 23 91 50
67 40 85 56 85 73 0 42 39 60 72 35z m8016 0 c7 -7 12 -22 12 -34 0 -16 13
-29 43 -46 23 -14 233 -135 467 -270 234 -135 441 -255 460 -265 128 -72 310
-180 338 -200 l32 -24 0 -798 c0 -747 -1 -799 -17 -813 -10 -9 -110 -68 -223
-133 -197 -113 -346 -199 -550 -317 -283 -164 -510 -295 -550 -317 l-46 -24
-399 230 c-220 127 -521 301 -668 386 -247 143 -271 155 -306 150 -33 -5 -41
-2 -51 16 -14 27 -5 58 21 71 19 10 19 30 19 755 l0 744 -62 37 c-35 20 -64
37 -65 38 -1 0 -4 13 -8 28 -5 21 -2 30 19 43 25 17 28 16 91 -19 36 -20 70
-36 75 -36 6 0 515 292 1248 716 30 18 42 31 42 47 0 29 18 47 45 47 12 0 26
-5 33 -12z m-5610 -210 c29 -29 12 -63 -48 -97 -14 -8 -70 -41 -126 -73 -56
-32 -108 -58 -116 -58 -23 0 -40 26 -36 56 3 24 22 38 138 106 135 78 166 88
188 66z m3332 -66 c117 -67 135 -81 138 -105 4 -32 -13 -57 -36 -57 -17 0
-254 132 -284 158 -34 29 -17 82 27 82 11 0 81 -35 155 -78z m-3790 -207 c26
-31 3 -61 -82 -110 -207 -119 -206 -118 -233 -101 -52 34 -32 57 125 151 126
74 167 88 190 60z m4228 -47 c134 -77 172 -105 172 -125 0 -21 -29 -53 -47
-53 -8 0 -77 37 -154 82 -143 83 -168 109 -139 143 22 27 60 16 168 -47z
m-2157 -719 c19 -19 20 -30 17 -185 -3 -172 -6 -183 -50 -184 -42 0 -48 23
-48 195 0 158 1 164 22 179 29 21 34 20 59 -5z m1 -536 c16 -14 18 -34 18
-175 0 -144 -2 -160 -20 -178 -19 -19 -40 -18 -67 3 -10 7 -13 54 -13 173 0
134 3 165 16 178 20 21 43 20 66 -1z m5 -536 c3 -6 9 -23 12 -39 6 -27 37 -47
296 -197 160 -92 367 -212 460 -266 397 -230 513 -295 523 -295 6 0 38 16 71
36 62 37 97 41 114 13 20 -32 0 -63 -63 -97 l-60 -33 0 -773 c0 -722 -1 -775
-17 -795 -10 -11 -99 -67 -198 -124 -99 -57 -301 -174 -450 -259 -148 -86
-368 -213 -488 -282 -120 -69 -227 -126 -238 -126 -11 0 -162 83 -337 183
-174 101 -337 195 -362 209 -220 125 -656 380 -671 394 -18 17 -19 43 -19 789
l0 772 -70 39 c-72 40 -94 70 -73 103 18 28 51 23 123 -19 l71 -42 112 65 c62
35 352 202 645 371 469 272 532 311 532 332 0 48 64 78 87 41z m-2307 -266
c141 -82 169 -111 140 -145 -22 -28 -56 -18 -182 55 -137 80 -158 95 -158 117
0 21 30 52 49 52 9 -1 77 -36 151 -79z m4702 62 c23 -20 23 -46 1 -65 -38 -32
-265 -158 -287 -158 -12 0 -27 5 -34 12 -16 16 -15 53 1 66 28 23 273 162 286
162 8 0 23 -7 33 -17z m-4252 -324 c69 -40 133 -79 143 -87 33 -29 16 -82 -27
-82 -31 0 -287 152 -299 177 -8 18 -6 27 8 43 10 11 25 20 34 20 9 0 72 -32
141 -71z m3795 47 c12 -18 14 -30 7 -43 -13 -23 -272 -173 -298 -173 -42 0
-60 54 -28 81 39 33 261 157 281 158 13 1 29 -9 38 -23z"/>
<path d="M9594 15742 c4 -7 -51 -42 -74 -47 -3 0 -27 -15 -55 -33 -27 -18 -56
-30 -63 -27 -7 2 -11 1 -8 -3 7 -12 -102 -74 -117 -66 -6 4 -9 3 -4 -1 8 -9
-89 -74 -110 -75 -7 0 -13 -4 -13 -9 0 -5 -10 -13 -22 -17 -13 -4 -35 -16 -49
-27 -16 -11 -32 -16 -40 -12 -7 5 -10 4 -6 -2 7 -10 -20 -28 -35 -25 -5 1 -8
-2 -8 -6 0 -5 -24 -22 -52 -37 -29 -16 -97 -55 -151 -87 -54 -32 -104 -55
-110 -52 -7 4 -9 4 -5 -1 7 -7 -61 -52 -172 -111 -81 -44 -124 -71 -128 -82
-1 -5 21 -22 50 -37 69 -36 91 -52 81 -57 -4 -3 -2 -3 4 -2 12 3 129 -61 366
-200 51 -29 153 -88 227 -131 74 -43 160 -92 190 -110 194 -113 308 -175 319
-175 12 0 186 96 281 155 19 12 60 35 90 52 119 66 854 493 861 500 5 5 -96
69 -224 142 -127 73 -248 144 -267 156 -19 12 -132 77 -250 145 -118 68 -273
158 -345 200 -130 76 -171 97 -161 82z"/>
<path d="M8320 14255 c0 -377 2 -685 5 -685 2 0 33 15 67 34 77 41 107 35 108
-21 0 -17 -17 -32 -70 -63 -63 -37 -86 -60 -60 -60 5 0 58 -28 117 -63 60 -35
189 -110 288 -167 99 -56 197 -113 217 -126 21 -13 39 -24 42 -24 2 0 86 -48
187 -107 101 -58 211 -121 244 -140 33 -19 64 -39 70 -44 5 -5 13 -9 17 -9 4
0 8 325 8 723 l0 723 -132 76 c-73 42 -184 105 -245 140 -62 36 -109 69 -105
73 4 5 2 5 -4 2 -6 -4 -31 6 -55 21 -24 15 -56 33 -71 41 -15 8 -25 19 -21 24
3 6 1 7 -5 3 -7 -4 -38 8 -70 27 -31 19 -109 65 -172 103 -63 37 -117 71 -118
76 -2 4 -7 6 -11 3 -5 -2 -39 15 -77 38 -39 24 -78 46 -88 50 -9 4 -14 11 -11
17 3 5 0 7 -8 4 -8 -3 -18 -1 -22 5 -3 6 -10 11 -16 11 -5 0 -9 -264 -9 -685z
m640 -380 c16 -31 2 -50 -62 -84 -24 -12 -50 -26 -58 -31 -148 -93 -190 -107
-209 -72 -18 33 11 62 139 137 138 80 169 89 190 50z"/>
<path d="M10830 14900 c-36 -20 -148 -85 -249 -144 -101 -58 -185 -106 -187
-106 -2 0 -43 -24 -91 -53 -48 -29 -135 -79 -193 -112 -58 -32 -136 -77 -175
-100 -38 -23 -116 -68 -172 -100 l-103 -60 0 -723 0 -724 33 20 c17 11 124 73
237 137 113 65 257 148 320 185 63 37 222 129 353 204 130 76 237 141 237 146
0 4 -31 26 -70 49 -62 37 -70 45 -70 72 0 22 6 32 23 38 26 10 33 7 110 -38
32 -18 60 -31 63 -29 2 3 3 313 2 690 l-3 686 -65 -38z m-393 -1079 c133 -77
152 -96 132 -133 -17 -32 -59 -20 -183 53 -139 83 -156 96 -156 120 0 23 37
49 59 42 9 -3 75 -40 148 -82z"/>
<path d="M13365 13281 c-246 -141 -571 -329 -843 -486 -84 -48 -149 -92 -145
-96 4 -4 105 -64 223 -132 118 -68 392 -226 608 -350 216 -125 395 -227 399
-227 5 0 810 463 1117 643 65 38 114 73 110 77 -7 6 -717 418 -884 512 -69 39
-159 91 -218 127 -29 17 -70 40 -91 50 l-37 19 -239 -137z"/>
<path d="M12320 11930 c0 -374 2 -680 5 -680 3 0 34 16 69 35 70 38 97 43 116
21 25 -31 7 -59 -65 -103 -38 -23 -71 -45 -72 -50 -2 -7 111 -75 356 -214 25
-14 120 -69 211 -121 497 -286 587 -337 603 -343 16 -7 17 30 15 711 l-3 719
-610 352 c-335 194 -613 353 -617 353 -5 0 -8 -306 -8 -680z m654 -361 c11
-16 12 -27 5 -43 -10 -20 -246 -162 -289 -173 -27 -7 -50 14 -50 47 0 24 14
35 138 108 75 44 147 81 159 81 12 1 29 -9 37 -20z"/>
<path d="M14650 12478 c-296 -172 -575 -333 -785 -453 -93 -54 -180 -104 -192
-112 l-23 -13 0 -715 c0 -475 3 -715 10 -715 9 0 105 54 435 245 89 52 347
200 685 395 l115 66 0 714 c0 467 -3 714 -10 716 -5 1 -111 -56 -235 -128z"/>
<path d="M5565 13410 c-3 -5 -13 -6 -23 -3 -9 3 -14 3 -10 -2 8 -9 -81 -67
-172 -113 -30 -15 -57 -30 -60 -33 -12 -14 -68 -38 -75 -31 -5 4 -5 2 -2 -4 3
-6 -8 -18 -26 -27 -18 -10 -50 -28 -72 -42 -42 -27 -74 -42 -88 -43 -5 0 -14
-8 -21 -18 -8 -11 -18 -14 -26 -9 -8 5 -11 4 -7 -1 3 -6 -38 -34 -91 -64 -53
-30 -121 -70 -151 -87 -96 -56 -111 -64 -111 -58 0 3 -9 -4 -20 -15 -12 -12
-25 -18 -30 -15 -6 4 -10 2 -10 -3 0 -5 -27 -24 -60 -41 -32 -18 -62 -36 -65
-42 -4 -5 -10 -7 -15 -4 -5 3 -19 -4 -30 -15 -12 -12 -27 -19 -34 -17 -6 3
-13 -4 -13 -14 -1 -10 2 -19 7 -19 6 0 33 -15 62 -32 29 -18 67 -40 83 -48 17
-9 29 -20 28 -26 -1 -6 8 -10 20 -10 12 1 21 -4 20 -11 -2 -8 4 -10 14 -6 12
5 14 3 8 -7 -5 -9 -4 -11 4 -6 6 4 33 -6 59 -21 26 -16 55 -32 65 -36 11 -4
15 -12 11 -18 -4 -8 -3 -9 4 -5 15 9 95 -38 85 -49 -5 -4 -3 -5 3 -2 6 4 37
-9 69 -28 31 -19 83 -49 115 -67 32 -17 56 -36 53 -42 -3 -5 -1 -6 4 -3 14 9
165 -77 155 -88 -4 -5 -1 -5 6 -1 6 4 24 -1 40 -12 24 -17 88 -54 149 -87 13
-7 21 -14 18 -17 -3 -2 1 -5 8 -5 7 0 45 -18 84 -41 l71 -42 54 35 c29 19 59
33 66 30 8 -3 10 0 6 7 -5 8 -2 9 9 5 9 -3 19 -1 23 5 5 7 2 8 -7 3 -9 -5 -11
-5 -4 2 9 10 65 42 155 89 19 11 38 24 42 29 5 7 8 7 8 0 0 -6 3 -6 8 0 7 11
40 31 132 83 25 14 59 33 75 43 17 10 57 33 90 52 152 87 152 87 139 65 -5 -7
-3 -8 5 -4 7 5 10 11 7 14 -8 8 76 62 86 56 4 -3 8 -1 8 5 0 11 128 84 147 84
7 0 11 2 8 5 -8 9 145 93 157 86 6 -4 8 -3 4 4 -3 5 0 13 6 16 20 8 -15 32
-186 130 -85 49 -153 92 -151 97 3 4 -4 5 -15 2 -11 -3 -20 0 -20 6 0 6 -6 11
-14 11 -8 0 -16 3 -18 8 -1 4 -24 18 -50 31 -26 13 -45 28 -41 34 3 6 1 7 -5
3 -10 -6 -55 16 -72 34 -3 3 -24 14 -47 24 -23 10 -41 22 -38 26 2 4 -1 7 -8
7 -22 1 -97 49 -90 58 5 4 3 5 -4 1 -7 -4 -41 10 -75 31 -35 21 -75 44 -90 52
-15 8 -38 24 -50 35 -12 12 -26 20 -30 19 -4 -2 -47 20 -95 47 -48 28 -83 50
-78 51 13 1 -36 17 -57 18 -9 1 -19 -3 -23 -9z"/>
<path d="M4307 12613 c-4 -3 -7 -329 -7 -722 0 -714 0 -716 21 -729 11 -7 38
-22 60 -34 34 -18 38 -22 27 -37 -12 -14 -11 -14 4 -2 15 11 27 7 92 -30 41
-24 72 -48 69 -53 -4 -5 -1 -6 5 -2 14 8 85 -38 75 -48 -4 -4 1 -4 11 0 15 6
17 4 11 -6 -5 -8 -4 -11 3 -6 6 3 33 -6 59 -22 26 -16 98 -57 158 -91 61 -34
117 -66 125 -72 96 -60 517 -295 523 -292 10 6 9 1443 -1 1443 -5 0 -17 7 -28
16 -10 8 -13 12 -5 8 10 -5 12 -3 7 5 -4 7 -13 10 -19 8 -19 -7 -69 22 -61 35
4 7 3 8 -5 4 -6 -4 -24 2 -40 13 -16 12 -33 21 -38 21 -5 0 -42 21 -83 46 -41
25 -96 57 -122 71 -27 14 -45 29 -42 34 3 5 -3 6 -12 2 -13 -5 -15 -3 -9 7 5
9 4 11 -4 6 -6 -4 -18 -3 -25 3 -7 6 -39 25 -72 42 -32 17 -68 40 -80 50 -11
10 -27 19 -35 19 -8 0 -19 4 -25 9 -8 8 -231 138 -374 219 -67 37 -81 48 -72
57 4 5 1 5 -6 1 -7 -4 -27 2 -46 13 -18 11 -36 18 -39 14z"/>
<path d="M6855 12611 c-6 -5 -26 -18 -45 -29 -19 -11 -91 -53 -160 -92 -69
-40 -165 -96 -215 -125 -49 -29 -114 -66 -142 -83 -29 -17 -53 -29 -53 -26 0
3 -12 -4 -26 -15 -15 -11 -31 -18 -38 -14 -6 3 -8 3 -4 -2 10 -10 -141 -96
-155 -88 -6 4 -7 1 -2 -7 6 -10 4 -12 -11 -6 -10 4 -15 4 -11 0 8 -8 -100 -77
-121 -77 -6 0 -10 -3 -7 -6 3 -3 -7 -12 -23 -21 -16 -8 -54 -28 -83 -44 -30
-15 -61 -35 -70 -43 -9 -8 -25 -15 -35 -15 -18 -2 -19 -26 -16 -717 1 -394 4
-721 7 -728 2 -8 35 6 92 39 48 27 93 54 98 58 6 4 46 28 90 52 44 25 109 62
145 83 36 20 79 45 95 55 17 9 107 61 200 115 94 54 224 130 290 168 66 39
133 77 148 85 15 7 26 19 24 25 -2 7 -35 30 -73 53 -71 42 -89 69 -64 100 20
23 50 16 120 -25 36 -22 68 -37 72 -34 5 2 8 312 8 689 0 701 0 708 -35 675z
m-458 -1093 c71 -39 136 -78 146 -86 23 -20 22 -45 -4 -68 -20 -18 -21 -18
-57 2 -226 127 -257 147 -260 172 -4 26 13 52 34 52 8 0 71 -32 141 -72z"/>
<path d="M9529 11047 c-277 -153 -1149 -663 -1146 -671 1 -4 57 -40 122 -78
152 -89 486 -283 545 -316 25 -14 161 -92 302 -174 l257 -148 203 117 c715
412 1023 592 1025 600 2 4 -61 45 -140 90 -78 44 -353 203 -611 352 -258 149
-471 271 -475 271 -3 0 -40 -19 -82 -43z"/>
<path d="M8322 9568 l3 -721 500 -288 c275 -159 530 -307 568 -329 37 -22 70
-40 73 -40 3 0 22 -11 42 -25 20 -14 40 -25 44 -25 5 0 8 323 8 719 l0 719
-87 50 c-49 27 -160 91 -248 143 -431 249 -899 519 -902 519 -2 0 -2 -325 -1
-722z"/>
<path d="M10840 10261 c-25 -16 -146 -87 -270 -158 -124 -71 -379 -218 -567
-327 l-343 -198 0 -719 c0 -396 2 -719 5 -719 4 0 43 22 88 48 45 27 204 119
352 204 149 86 387 224 530 306 l260 151 3 720 c1 397 -1 721 -5 720 -5 0 -28
-13 -53 -28z"/>
<path d="M5335 8628 c-104 -60 -280 -162 -390 -225 -570 -329 -585 -337 -585
-344 0 -7 51 -37 575 -339 165 -95 380 -219 478 -277 l178 -103 267 154 c147
84 283 163 302 174 70 39 427 246 530 307 58 34 113 64 123 68 33 12 52 1
-433 279 -129 75 -344 199 -478 277 -134 77 -247 141 -253 141 -5 0 -9 -34 -9
-76 0 -86 -11 -114 -43 -114 -39 0 -47 19 -47 107 0 60 -3 83 -12 83 -7 -1
-98 -51 -203 -112z m287 -245 c16 -14 18 -34 18 -179 0 -134 -3 -165 -16 -178
-18 -19 -28 -20 -55 -6 -18 10 -19 23 -19 185 0 155 2 175 18 184 24 14 33 13
54 -6z"/>
<path d="M4306 7963 c-3 -3 -6 -327 -6 -718 l0 -712 397 -229 c219 -126 496
-286 617 -356 121 -70 224 -124 228 -122 4 3 8 327 8 719 l0 714 -32 17 c-18
9 -215 123 -438 252 -223 129 -425 246 -450 260 -25 14 -97 55 -160 92 -147
86 -156 91 -164 83z"/>
<path d="M6534 7774 c-654 -378 -809 -468 -851 -492 l-43 -24 0 -712 c0 -392
3 -715 6 -719 7 -6 5 -7 266 144 106 61 267 154 358 206 392 226 560 325 560
331 0 4 -27 22 -60 40 -74 41 -90 57 -90 88 0 17 8 27 27 35 22 8 36 4 96 -31
39 -22 72 -39 73 -37 5 4 6 1358 1 1363 -1 2 -156 -85 -343 -192z m-119 -907
c144 -85 164 -107 135 -143 -23 -26 -65 -13 -195 65 -115 67 -130 80 -133 106
-4 28 18 56 42 55 6 -1 74 -38 151 -83z"/>
<path d="M13475 8701 c-60 -38 -672 -391 -1010 -584 -38 -22 -76 -44 -83 -50
-15 -12 -59 15 638 -387 289 -166 539 -311 555 -321 l31 -18 519 301 c286 165
564 325 618 356 53 31 97 59 97 62 0 3 -116 71 -258 153 -141 81 -336 193
-432 248 -393 228 -484 279 -490 279 -4 0 -8 -37 -9 -82 -1 -71 -5 -86 -23
-101 -18 -15 -24 -16 -42 -4 -18 13 -21 26 -24 101 -2 60 -6 86 -15 85 -7 0
-39 -18 -72 -38z m163 -313 c17 -17 17 -349 0 -366 -17 -17 -44 -15 -62 4 -13
13 -16 44 -16 179 0 135 3 166 16 179 18 19 45 21 62 4z"/>
<path d="M12320 7285 l0 -686 75 41 c78 44 109 46 120 9 11 -35 -4 -55 -75
-95 -39 -21 -69 -43 -67 -47 1 -5 50 -36 107 -69 58 -33 240 -138 405 -233
165 -95 382 -220 482 -278 100 -58 184 -103 187 -99 3 3 6 326 6 718 l0 713
-32 17 c-31 16 -237 135 -433 249 -49 29 -112 65 -140 81 -47 26 -300 172
-500 289 -49 29 -100 58 -112 64 l-23 12 0 -686z m649 -354 c29 -29 16 -57
-45 -97 -30 -18 -56 -34 -58 -34 -3 0 -39 -20 -81 -46 -96 -56 -138 -58 -143
-7 -3 25 2 35 24 50 63 41 260 152 272 152 6 1 21 -8 31 -18z"/>
<path d="M14515 7753 c-203 -117 -473 -273 -600 -345 -126 -72 -238 -138 -247
-146 -16 -14 -18 -65 -18 -723 0 -389 3 -710 7 -712 7 -4 147 73 389 214 43
26 246 142 449 259 204 117 378 219 387 228 16 14 18 65 18 723 0 389 -3 710
-7 712 -5 3 -174 -92 -378 -210z"/>
<path d="M9375 6313 c-99 -58 -198 -115 -220 -128 -101 -56 -451 -258 -460
-265 -5 -4 -32 -20 -60 -35 -117 -64 -255 -147 -255 -154 0 -4 55 -38 123 -77
67 -39 341 -197 609 -352 268 -155 492 -282 497 -282 5 0 151 81 323 181 172
100 447 258 610 353 164 94 298 174 298 178 0 5 -176 109 -385 228 -99 56
-458 264 -560 323 -66 39 -146 85 -177 103 l-58 33 0 -79 c0 -86 -12 -110 -55
-110 -33 0 -39 14 -45 106 l-5 81 -180 -104z m267 -250 c16 -14 18 -34 18
-172 0 -126 -3 -161 -16 -179 -18 -26 -41 -28 -66 -5 -16 14 -18 34 -18 179 0
134 3 165 16 178 20 21 43 20 66 -1z"/>
<path d="M8320 4923 l0 -718 182 -105 c100 -58 202 -117 227 -131 25 -14 89
-51 141 -81 52 -30 219 -126 370 -213 151 -87 285 -165 298 -173 l22 -14 0
720 0 720 -47 30 c-27 16 -203 119 -392 227 -190 109 -373 215 -408 236 -35
22 -66 39 -68 39 -3 0 -38 19 -78 43 -106 64 -235 137 -242 137 -3 0 -5 -323
-5 -717z"/>
<path d="M10780 5578 c-58 -33 -253 -146 -435 -251 -181 -105 -357 -206 -390
-225 -127 -73 -162 -93 -227 -130 l-68 -37 0 -722 0 -722 123 71 c67 39 196
113 287 166 91 52 224 129 295 170 175 101 383 221 422 243 17 10 50 29 72 44
l41 25 0 715 c0 393 -3 715 -7 715 -5 0 -55 -28 -113 -62z"/>
</g>
</svg>
